<?xml version="1.0" encoding="utf-8"?>
<!-- Generator: Adobe Illustrator 27.5.0, SVG Export Plug-In . SVG Version: 6.00 Build 0)  -->
<svg version="1.1" id="Layer_1" xmlns="http://www.w3.org/2000/svg" xmlns:xlink="http://www.w3.org/1999/xlink" x="0px" y="0px"
	 viewBox="0 0 512 512" style="enable-background:new 0 0 512 512;" xml:space="preserve">
<style type="text/css">
	.st0{fill:#FFFFFF;}
</style>
<g id="_x31_0.Linkedin">
	<path class="st0" d="M460.8,460.8v-150c0-73.7-15.9-130-101.9-130c-41.5,0-69.1,22.5-80.4,44h-1v-37.4h-81.4v273.4h85V325.1
		c0-35.8,6.7-70.1,50.7-70.1c43.5,0,44,40.4,44,72.2v133.1h85L460.8,460.8z"/>
	<path class="st0" d="M57.9,187.4h85v273.4h-85L57.9,187.4z"/>
	<path class="st0" d="M100.4,51.2c-27.1,0-49.2,22-49.2,49.2s22,49.7,49.2,49.7s49.2-22.5,49.2-49.7S127.5,51.2,100.4,51.2z"/>
</g>
</svg>
