<svg width="120" height="33" viewBox="0 0 120 33" fill="none" xmlns="http://www.w3.org/2000/svg">
<path d="M16.9623 13.7763L16.9337 14.6708C16.9337 14.6708 16.905 15.7889 17.0866 15.5653C17.3733 15.2019 18.3483 14.3912 18.4916 14.2887C19.1894 13.8135 19.543 13.5899 19.9349 13.5992C20.3268 13.6086 21.4738 12.8072 21.2348 13.0122C21.0054 13.2172 20.9385 13.6645 20.3937 13.8974C20.365 13.916 19.7246 13.8788 18.7688 14.8664C18.1858 15.3044 17.6696 15.7982 17.2013 16.348C17.1726 16.3852 17.1822 16.4505 17.1631 16.5623C17.3542 16.4971 17.5072 16.4411 17.6505 16.3852C18.4343 16.1243 19.2181 16.0125 20.04 16.1989C20.4797 16.3014 20.8716 16.4411 21.2252 16.7114C21.5407 16.9443 22.4009 17.6059 22.7068 17.8574C23.2611 18.3047 23.7581 18.1929 23.8537 18.1836C24.1405 18.1836 24.5993 18.109 24.8955 18.1183C25.1823 18.1277 24.1118 19.2085 22.095 18.2208C21.8179 17.9786 21.187 17.6711 20.8812 17.4754C20.0496 16.935 19.1798 16.8418 18.2814 17.3263C17.8704 17.55 17.5549 17.8761 17.3351 18.2767C16.5418 19.721 16.5609 21.1652 17.3925 22.5722C17.6314 22.9636 17.9755 23.327 18.3483 23.6065C19.5813 24.5196 20.9481 25.0321 22.5443 24.7712C23.5192 24.6128 24.4463 24.3146 25.3639 23.9792C26.5491 23.5506 27.7725 23.5413 28.996 23.6904C29.1393 23.709 29.2827 23.7369 29.4165 23.7928C29.4834 23.8208 29.5695 23.9047 29.5695 23.9512C29.5599 24.0537 29.4643 24.1283 29.3496 24.119C29.1585 24.1097 28.9768 24.091 28.7857 24.0724C28.4129 24.0444 28.0402 24.0072 27.6674 23.9885C26.8836 23.9606 26.1285 24.091 25.4021 24.3612C25.0676 24.4824 24.7331 24.5849 24.3985 24.706C24.2838 24.7433 24.1883 24.8085 24.1022 24.9296C24.6088 24.911 25.1249 24.883 25.6315 24.8923C26.1763 24.9017 26.7116 24.9296 27.2468 25.0042C27.7534 25.0694 28.2696 25.1626 28.7188 25.3955C28.7188 25.5725 28.6519 25.6657 28.4894 25.6378C28.2791 25.6098 28.0784 25.5819 27.8777 25.5259C26.941 25.2557 25.9852 25.2744 25.0198 25.3116C24.2456 25.3396 23.481 25.4048 22.7163 25.4514C22.6781 25.4514 22.6398 25.4794 22.5825 25.5166C22.6398 25.5539 22.6781 25.5912 22.7259 25.6005C23.242 25.6471 23.7677 25.703 24.2838 25.7216C25.1919 25.7589 26.0521 25.9732 26.8741 26.3459C27.1321 26.467 27.3711 26.6441 27.6005 26.8118C27.7152 26.8863 27.6865 26.9609 27.4762 27.1659C27.3424 27.0913 27.199 27.0075 27.0652 26.9236C26.4057 26.5136 25.6793 26.2714 24.9051 26.1875C24.4081 26.1316 23.9111 26.0943 23.414 26.0664C22.917 26.0384 22.42 25.9546 21.9325 25.8428C21.3686 25.7123 20.7856 25.6191 20.2216 25.5073C20.1452 25.4887 20.0592 25.5073 19.9731 25.5073C19.9923 25.5725 19.9827 25.6284 20.0114 25.6471C20.3268 25.9173 20.6326 26.1875 20.9576 26.4391C21.4546 26.8211 22.0281 26.9609 22.659 26.8863C22.9935 26.8491 23.3185 26.8211 23.653 26.8025C24.6948 26.7559 25.6698 27.0168 26.6064 27.4454C26.7211 27.5013 26.8167 27.5665 26.9219 27.6411C26.9505 27.6597 26.9601 27.7063 26.9792 27.7436C26.941 27.9113 26.8358 28.0045 26.6638 27.9392C26.4535 27.8554 26.2432 27.7529 26.0425 27.6597C25.5646 27.4454 25.0772 27.3056 24.5228 27.2684C24.5323 27.5013 24.6948 27.5759 24.8 27.6784C25.0867 27.9486 25.3257 28.2561 25.5168 28.6008C25.5646 28.6847 25.6124 28.7872 25.6315 28.8803C25.6698 29.0387 25.6124 29.1599 25.4212 29.2065C25.2396 29.1319 25.2014 28.9362 25.1154 28.7778C24.7904 28.1908 24.3125 27.7436 23.7486 27.3802C23.5479 27.2497 23.3376 27.2125 23.0986 27.2497C22.5156 27.3429 21.9421 27.3522 21.3686 27.1845C21.3304 27.1752 21.2922 27.1938 21.2539 27.2031C21.2922 28.0976 21.837 28.7033 22.7163 28.7685C23.2707 28.8151 23.7773 28.9549 24.2552 29.2344C24.4463 29.3462 24.6566 29.4487 24.7426 29.6723C24.6853 29.8121 24.5897 29.8773 24.4463 29.8307C24.3507 29.7935 24.2647 29.7283 24.1787 29.6723C23.7677 29.4114 23.328 29.253 22.831 29.2158C22.6876 29.2065 22.5443 29.1878 22.4009 29.1599C21.8943 29.0853 21.512 28.8244 21.2635 28.3865C21.1106 28.1256 20.9863 27.8368 20.8525 27.5665C20.5084 26.8491 20.0018 26.2714 19.3423 25.8055C18.9218 25.5073 18.4534 25.4048 17.9468 25.4048C17.9277 25.47 17.899 25.5166 17.9182 25.5446C18.2336 26.4857 18.6924 27.3429 19.371 28.079C19.6482 28.3865 20.0018 28.6008 20.3555 28.8244C20.776 29.0853 21.187 29.3649 21.5789 29.663C21.9708 29.9705 22.2766 30.3619 22.4774 30.8184C22.506 30.8837 22.506 30.9861 22.4678 31.0421C22.4296 31.098 22.3435 31.1259 22.248 31.1818C21.837 30.6321 21.5215 30.0264 20.8238 29.6537C20.8334 29.8028 20.8238 29.896 20.8429 29.9798C20.9959 30.5016 21.0054 31.0234 20.8716 31.5452C20.8525 31.6291 20.7665 31.7223 20.69 31.7782C20.6326 31.8154 20.5466 31.8061 20.4128 31.8154C20.4415 31.6011 20.4702 31.4241 20.4988 31.247C20.5944 30.4364 20.4224 29.7096 19.7724 29.1412C19.6004 28.9921 19.4092 28.8524 19.2085 28.7778C18.4534 28.4983 17.8035 28.079 17.2109 27.5572C17.1822 27.5293 17.1344 27.5199 17.0962 27.5013C16.9815 27.5479 17.0197 27.6318 17.0675 27.6877C17.1917 27.8461 17.3064 28.0231 17.4689 28.1536C18.1093 28.7033 18.5394 29.3928 18.8548 30.1569C19.0651 30.6693 19.2181 31.2005 19.3805 31.7223C19.4188 31.8341 19.3997 31.9645 19.3805 32.0763C19.371 32.1136 19.2945 32.1602 19.2372 32.1695C19.1798 32.1788 19.0938 32.1602 19.0747 32.1229C19.0078 32.0018 18.96 31.862 18.9218 31.7316C18.7688 31.1352 18.5681 30.5575 18.3005 30.0078C18.2622 29.9239 18.2431 29.8028 18.0711 29.8028C18.0711 30.0451 18.0711 30.278 18.0711 30.5203C18.0615 31.0327 18.052 31.5359 17.9182 32.0297C17.8895 32.1415 17.8417 32.2627 17.7748 32.3652C17.7366 32.4211 17.6219 32.449 17.5645 32.4397C17.5072 32.4211 17.4307 32.3279 17.4307 32.272C17.4785 31.89 17.5358 31.5079 17.6027 31.1259C17.6696 30.6787 17.6601 30.2407 17.5836 29.7935C17.4976 29.2437 17.316 28.7313 16.9623 28.284C16.666 27.9113 16.4271 27.5106 16.255 27.0727C16.2264 26.9982 16.1881 26.9422 16.1021 26.7745C16.0161 27.1566 16.0448 27.4268 16.1021 27.697C16.1595 27.9765 16.2359 28.2561 16.3506 28.5169C16.6087 29.1226 16.6565 29.7376 16.4844 30.3712C16.3697 30.8091 16.3028 31.247 16.3889 31.6943C16.4271 31.89 16.3984 32.1043 16.3793 32.2999C16.3602 32.477 16.2933 32.5049 15.9779 32.4677C15.8727 31.7782 15.997 31.0234 15.6147 30.2966C15.2992 30.9861 14.8691 31.5452 14.7927 32.2534C14.7831 32.3093 14.764 32.3838 14.7258 32.4211C14.6684 32.4677 14.5728 32.5143 14.5155 32.4956C14.4581 32.4863 14.3625 32.3931 14.3625 32.3372C14.3721 31.9738 14.439 31.6104 14.5919 31.275C14.6397 31.1632 14.7066 31.0607 14.7735 30.9582C15.2514 30.2221 15.2419 29.4674 14.8978 28.6847C14.85 28.5729 14.7927 28.4704 14.7353 28.3585C14.5155 28.4051 14.5059 28.6008 14.3912 28.7126C13.8273 29.2903 13.5883 29.9705 13.6266 30.7718C13.6361 31.07 13.5788 31.3775 13.5406 31.685C13.5119 31.8993 13.4354 32.1136 13.3781 32.3652C13.2251 32.3279 13.12 32.2906 12.9862 32.2627C13.034 31.9552 13.0818 31.6757 13.1296 31.3961C13.2347 30.6787 13.2251 29.9705 12.9766 29.2903C12.7568 28.666 12.6421 28.0324 12.6994 27.3709C12.709 27.287 12.6899 27.2125 12.6803 27.1286C12.6803 27.11 12.6612 27.0913 12.6517 27.0727C12.5178 27.0354 12.47 27.1379 12.4223 27.2218C12.0208 27.9206 11.7914 28.6847 11.6863 29.4767C11.5907 30.2314 11.6098 30.9768 11.8201 31.7129C11.8392 31.7875 11.8392 31.8713 11.8488 31.9925C11.7436 31.9831 11.6576 32.0111 11.6098 31.9738C11.5142 31.8993 11.3995 31.8061 11.3804 31.7129C11.2944 31.3123 11.2371 30.9116 11.1893 30.5109C11.1606 30.2873 11.1893 30.0637 11.1893 29.868C11.0077 29.7469 10.9121 29.8494 10.8261 29.9146C10.2908 30.3153 9.67909 30.5762 9.0387 30.7718C8.70417 30.8743 8.64682 30.8464 8.34096 30.5203C9.16296 30.3246 9.64086 29.7469 10.0519 29.0946C10.3959 28.5542 10.6445 27.9765 10.8069 27.3615C11.0172 26.5602 11.3231 25.8148 11.8201 25.1439C11.8488 25.1067 11.8488 25.0414 11.8679 24.9482C11.5907 25.0135 11.4473 25.1905 11.2848 25.3396C10.4915 26.0757 9.83202 26.9143 9.32544 27.8554C8.89533 28.6567 8.23582 29.2344 7.43294 29.663C7.35648 29.7003 7.28957 29.7376 7.21311 29.7748C7.02195 29.8401 6.89769 29.7748 6.79255 29.5699C6.86902 29.5139 6.93592 29.4487 7.01239 29.4021C7.34692 29.1878 7.69101 29.0015 8.00643 28.7685C8.49389 28.4051 8.7424 28.0417 8.96224 27.4547C8.81886 27.3615 8.73284 27.492 8.6277 27.5386C7.91085 27.9299 7.15576 28.2188 6.35288 28.3492C6.06614 28.3958 5.76984 28.3958 5.4831 28.4051C5.2537 28.4051 5.10077 28.2933 5.00519 28.0417C5.54044 27.9765 6.05658 27.9486 6.56316 27.8647C7.09841 27.7715 7.61455 27.5852 8.08289 27.3243C8.53212 27.0727 8.97179 26.7932 9.39235 26.495C10.0423 26.0291 10.2335 25.8055 10.4724 25.3862C10.3386 25.3862 10.2239 25.3769 10.1092 25.3862C9.69821 25.4141 9.27765 25.4794 8.86666 25.47C7.29913 25.4235 6.10437 26.0943 5.139 27.2404C5.00519 27.3988 4.89049 27.5665 4.76624 27.7156C4.46038 27.5945 4.42215 27.5293 4.53685 27.3429C4.93829 26.6814 5.49265 26.1689 6.15216 25.7589C6.32421 25.6564 6.52493 25.6005 6.69697 25.3862C6.54404 25.3675 6.44846 25.3396 6.35288 25.3396C5.41619 25.3116 4.4795 25.3582 3.56192 25.6005C3.43767 25.6284 3.32297 25.6657 3.19871 25.675C3.01711 25.6937 2.94065 25.5819 2.91197 25.3769C3.60015 25.0321 4.37436 25.0042 5.12945 24.9203C5.86542 24.8364 6.61095 24.883 7.35648 24.9389C7.33736 24.8737 7.33736 24.8458 7.3278 24.8458C6.62051 24.6035 5.92277 24.3426 5.20591 24.1469C4.46994 23.9419 3.71485 24.0165 2.96932 24.0817C2.73993 24.1003 2.51053 24.119 2.2907 24.1283C2.18556 24.1283 2.176 24.1003 2.11865 23.8301C2.2907 23.7835 2.46274 23.709 2.64435 23.681C3.70529 23.5319 4.76624 23.5226 5.79851 23.8394C6.23818 23.9699 6.6683 24.1283 7.09841 24.2681C7.76748 24.4917 8.4461 24.6967 9.14384 24.7992C9.64086 24.8737 10.1379 24.8737 10.6349 24.7805C12.212 24.4824 13.445 23.6904 14.2574 22.3206C14.5346 21.8454 14.7258 21.3236 14.7162 20.7646C14.7066 20.4571 14.7162 20.1496 14.6875 19.8514C14.5824 18.8358 14.0949 18.0438 13.2251 17.4754C12.623 17.0841 11.9539 16.8604 11.2371 16.8232C10.5967 16.7952 11.7341 17.6618 10.7114 17.3543C9.68865 17.0468 9.30633 17.3077 9.10561 17.5872C8.96224 17.7829 8.81886 17.9413 8.65638 18.1277C8.37919 18.4631 8.11157 18.7985 7.79615 19.0967C7.39471 19.4787 6.88813 19.6558 6.31465 19.6185C6.12349 19.6092 5.94188 19.5905 5.60735 19.4787C5.27282 19.3669 5.15812 19.0315 5.79851 19.0408C6.34332 19.1526 6.81167 19.1433 7.19399 18.929C7.57631 18.7147 7.63366 18.6029 7.74836 18.4258C7.9204 18.3886 8.01599 18.2395 8.11157 18.109C8.32184 17.8109 8.52256 17.5034 8.76152 17.2145C9.29677 16.553 9.99451 16.1337 10.8643 16.0125C10.9503 16.0032 11.0268 15.9846 11.1128 15.9939C12.0017 16.0125 12.8428 16.1709 13.6075 16.6368C13.6457 16.6275 13.6839 16.6275 13.7222 16.6182C13.6839 16.6275 13.6457 16.6275 13.6075 16.6368C13.6457 16.5064 13.5979 16.3946 13.4928 16.32C12.4509 15.5466 11.3326 14.941 10.0423 14.6801C9.5166 14.5683 7.65278 14.5496 8.2645 14.4378C9.0387 14.2887 9.78423 14.0278 10.6062 14.1676C10.6445 13.711 10.0327 13.1427 9.59307 12.7979C9.1534 12.4531 8.95268 12.4811 8.50345 12.2947C8.36008 12.1923 8.40787 12.0152 8.76152 12.0059C9.80335 11.9686 10.9981 13.4595 11.2944 14.121C11.3613 14.2794 11.4665 14.3912 11.6289 14.4565C12.5656 14.8199 13.3781 15.3882 14.1523 16.0032C14.1905 16.0312 14.2574 16.0405 14.3817 16.0778C14.2956 15.9194 14.2479 15.8075 14.1809 15.7144C13.5883 14.8571 13.034 13.9813 12.4031 13.1427C11.6003 12.0804 11.5716 11.2605 11.1319 10.9809C10.6827 10.7014 10.8739 10.1889 11.304 10.5057C11.7245 10.8225 12.0973 11.4468 12.3554 11.9966C12.6134 12.5463 14.0185 13.7949 14.5919 14.354C14.6302 14.3912 14.7066 14.3912 14.7927 14.4099C14.7735 14.2887 14.7735 14.1862 14.7544 14.0931C14.6015 13.3383 14.6493 12.5836 14.8978 11.8661C15.1272 11.2046 15.1845 10.5616 15.0316 9.89077C15.0316 9.87213 15.0412 9.8535 15.0507 9.79759C15.2132 9.88145 15.2515 10.0399 15.3088 10.1703C15.3757 10.3101 15.4235 10.4592 15.4904 10.6362C15.7771 10.4592 15.9396 10.2076 16.1308 10.0119C16.2837 9.8535 16.408 9.29443 16.408 9.29443L16.5322 10.2076C16.5322 10.2076 16.1881 10.8971 15.9205 11.3257C15.5573 11.8941 15.4139 12.5184 15.4044 13.1799C15.3853 13.944 15.5191 14.6801 15.6911 15.4069C15.7102 15.4814 15.758 15.5466 15.7963 15.6212C15.8058 15.6305 15.8345 15.6305 15.8918 15.6398C15.911 15.528 15.9205 15.4069 15.9396 15.2951C16.0734 14.149 16.4367 13.1986 16.1977 12.3972C15.9492 11.5866 16.9623 13.7763 16.9623 13.7763ZM16.1212 17.3636C16.1595 17.345 16.1881 17.3263 16.2168 17.3077C16.2264 17.2984 16.2359 17.2797 16.2455 17.2611C16.2264 17.2704 16.1881 17.2611 16.1786 17.2797C16.1595 17.3077 16.1499 17.345 16.1308 17.3916C16.1117 17.4381 16.083 17.4941 16.0734 17.55C16.0734 17.5593 16.1117 17.5779 16.1595 17.6245C16.1404 17.5034 16.1308 17.4381 16.1212 17.3636ZM18.138 17.0282C17.7365 17.1866 17.7365 17.1866 17.5454 17.4475C17.9564 17.2704 17.9564 17.2704 18.1284 17.0095C18.1667 17.0002 18.2145 16.9909 18.2527 16.9816C18.2145 17.0002 18.1762 17.0095 18.138 17.0282ZM17.9564 23.9792C17.9277 23.9978 17.8799 23.8953 17.8608 23.9885C17.899 23.9792 17.9373 23.9699 17.9755 23.9606C18.1667 24.2587 18.1667 24.2587 18.7306 24.4078C18.4343 24.1935 18.2049 24.0724 17.9564 23.9792ZM16.7138 22.2554C16.7234 22.2927 16.733 22.3393 16.733 22.3765C16.7234 22.3393 16.7138 22.302 16.7138 22.2554C16.6565 22.0877 16.5991 21.9107 16.5609 21.7336C16.5131 21.5473 16.5418 21.3516 16.322 21.1652C16.3697 21.4355 16.3889 21.6591 16.4367 21.8734C16.4749 22.0225 16.5418 22.1809 16.7138 22.2554ZM15.1654 24.2121C15.0507 24.2774 14.9743 24.2867 14.9552 24.3333C14.6397 24.8458 14.2192 25.2557 13.7604 25.6378C13.5692 25.7962 13.4354 26.0012 13.359 26.2434C13.1104 26.9888 13.0722 27.7529 13.206 28.5263C13.2347 28.7219 13.2538 28.9362 13.4832 29.0853C13.9516 28.666 14.3052 28.1908 14.3052 27.5293C14.3148 26.8118 14.4486 26.1223 14.7353 25.4607C14.8596 25.1812 14.9647 24.8923 15.0698 24.6128C15.1081 24.501 15.1272 24.3892 15.1654 24.2121ZM16.2073 24.1562C16.1786 24.8271 16.1786 25.3675 16.4367 25.8614C16.8668 26.6627 17.488 27.3056 18.2718 27.8088C18.3387 27.8554 18.4247 27.8833 18.5012 27.7715C18.4343 27.6597 18.3674 27.5386 18.3005 27.4175C18.1093 27.0354 17.8799 26.672 17.7365 26.2714C17.4689 25.4607 16.9432 24.8271 16.2073 24.1562ZM15.7294 24.3426C15.6242 24.4637 15.5669 24.4917 15.5478 24.5383C15.4139 24.883 15.2992 25.2278 15.1559 25.5632C14.9074 26.1409 14.8787 26.7373 14.9743 27.3522C15.1081 28.2561 15.4808 29.0574 15.9874 29.8121C15.997 29.8307 16.0639 29.8121 16.1212 29.8121C16.1881 29.458 16.0734 29.1319 15.9492 28.8151C15.7963 28.4144 15.6816 28.0138 15.6147 27.5852C15.5 26.8118 15.586 26.0477 15.7198 25.2837C15.7771 25.0042 15.7963 24.7246 15.7294 24.3426ZM14.2096 24.5569C13.942 24.5942 13.7604 24.7619 13.5597 24.883C12.9575 25.2278 12.4892 25.7216 12.0782 26.2621C11.6576 26.8211 11.304 27.4081 11.0268 28.0511C10.8261 28.5169 10.5775 28.9642 10.3577 29.4208C10.329 29.486 10.3099 29.5605 10.2526 29.7096C10.3959 29.6351 10.4724 29.6071 10.5393 29.5605C11.0363 29.1878 11.3422 28.7033 11.5238 28.1163C11.8679 27.0168 12.4892 26.1036 13.3972 25.3675C13.6361 25.1719 13.8655 24.9576 14.0854 24.7526C14.1427 24.6967 14.1714 24.6221 14.2096 24.5569ZM16.6756 23.7556C16.9337 24.3053 17.3638 24.6874 17.7939 24.8737C18.0233 24.9669 18.2527 25.0601 18.5585 24.9482C18.3578 24.7339 18.1093 24.678 17.899 24.5569C17.6888 24.4265 17.4689 24.3053 17.2682 24.1749C17.0579 24.0351 16.8668 23.8953 16.6756 23.7556ZM14.2479 23.7463C13.5883 23.8674 13.034 24.296 12.8619 24.7712C13.5597 24.4171 13.7604 24.2774 14.2479 23.7463ZM15.672 19.5905C15.5573 20.1776 15.4904 20.7553 15.7294 21.3143C15.8058 20.7366 15.7676 20.1589 15.672 19.5905Z" fill="white"/>
<path d="M8.44603 22.4792C7.29906 22.4792 6.43884 21.9109 6.05651 20.8673C6.00872 20.7461 6.07563 20.6157 6.19989 20.5691C6.32414 20.5225 6.45795 20.5877 6.50574 20.7089C6.99321 22.032 8.21664 22.0786 8.89526 21.9761C10.5966 21.7431 12.3553 20.3362 12.4413 19.1342C12.4987 18.2863 11.7436 17.6247 10.2525 17.2147L10.1856 17.2054C7.84387 16.8327 6.43884 16.6091 6.32414 15.1089C6.31458 14.9785 6.41016 14.8666 6.54398 14.8573C6.67779 14.848 6.79249 14.9412 6.80204 15.0716C6.87851 16.1618 7.85343 16.3575 10.2621 16.7395L10.3385 16.7488C10.3481 16.7488 10.3576 16.7488 10.3672 16.7582C11.3612 17.0284 13.0148 17.6992 12.9192 19.1621C12.8141 20.7182 10.7113 22.1997 8.97173 22.442C8.79012 22.4699 8.60852 22.4792 8.44603 22.4792Z" fill="white"/>
<path d="M12.6324 19.1248C12.5081 19.1248 12.403 19.0316 12.3934 18.9104C12.3361 18.2303 12.4221 17.8389 12.6802 17.6153C12.9765 17.3637 13.3779 17.4476 13.7698 17.5314C14.2381 17.6339 14.5344 17.6712 14.7352 17.4476C14.7543 17.4289 14.7734 17.4103 14.8021 17.3917C14.8594 17.3544 14.9072 17.0003 14.6396 16.4972C14.63 16.4878 14.63 16.4785 14.63 16.4692C14.4771 16.0406 14.4771 15.6399 14.4771 15.2858C14.4771 14.792 14.4771 14.3913 14.1043 14.0093C14.0279 13.9255 14.0183 13.795 14.0948 13.7111C15.1175 12.4346 14.9646 10.3381 14.8307 8.48389C14.7925 7.95278 14.7543 7.44962 14.7447 6.98373C14.6396 5.81902 14.7352 4.69157 14.8307 3.61071C14.8881 2.9212 14.9454 2.21305 14.955 1.51422C14.9359 1.32786 14.8403 1.19741 14.6587 1.10424C14.0565 0.806068 12.7089 1.05765 12.1832 1.37445C12.1545 1.39309 12.1163 1.4024 12.0876 1.41172C10.4914 1.58876 9.00032 2.71621 7.55705 3.8157C7.00269 4.22568 6.48655 4.61703 5.96086 4.95247C5.94174 4.96178 5.92262 4.9711 5.89395 4.98042C3.90587 5.5488 0.856843 8.94046 1.46856 11.009C1.47812 11.037 1.47812 11.0556 1.47812 11.0835C1.46856 11.1767 1.50679 11.2326 1.59281 11.3351C1.70751 11.4842 1.87 11.6799 1.81265 12.0526C1.80309 12.1924 1.83177 12.2855 1.91779 12.3694C2.09939 12.5651 2.55818 12.6676 3.20813 12.6582C3.56178 12.6489 3.88675 12.826 4.06836 13.1148C4.23084 13.3757 4.3551 13.6646 4.4698 13.9441C4.85212 14.8479 5.21532 15.7051 6.87843 15.8635C7.01224 15.8729 7.10782 15.994 7.08871 16.1151C7.06959 16.2363 6.96445 16.3388 6.83064 16.3201C4.88079 16.1338 4.40289 15.0063 4.03012 14.1118C3.91543 13.8323 3.80073 13.5714 3.65736 13.3478C3.56178 13.1987 3.38973 13.1148 3.20813 13.1148C2.38613 13.1241 1.85088 12.9844 1.56414 12.6769C1.39209 12.4905 1.31563 12.2669 1.33475 11.9874C1.33475 11.978 1.33475 11.978 1.33475 11.9687C1.36342 11.801 1.30607 11.7265 1.21049 11.6053C1.11491 11.4935 0.990656 11.3351 0.990656 11.0835C0.694355 10.04 1.17226 8.60502 2.30967 7.16077C3.32283 5.88424 4.66096 4.85929 5.73146 4.54248C6.22848 4.22568 6.73506 3.84365 7.27031 3.43367C8.67535 2.36213 10.2715 1.16014 11.9824 0.945834C12.575 0.619713 14.0661 0.284274 14.8785 0.684938C15.2131 0.852657 15.4042 1.13219 15.4329 1.48626C15.4329 1.49558 15.4329 1.49558 15.4329 1.5049C15.4234 2.22237 15.366 2.94915 15.3087 3.64798C15.2226 4.71952 15.127 5.82833 15.2226 6.95578C15.2226 6.9651 15.2226 6.9651 15.2226 6.97442C15.2322 7.43099 15.2704 7.93414 15.3087 8.46526C15.4425 10.3288 15.5954 12.4346 14.5918 13.8509C14.9646 14.3261 14.9646 14.82 14.9646 15.3045C14.9646 15.6306 14.9646 15.966 15.0793 16.3108C15.366 16.8699 15.452 17.5407 15.0793 17.783C14.6778 18.2023 14.1235 18.0905 13.6742 17.988C13.3875 17.9321 13.1103 17.8669 12.9956 17.9694C12.9287 18.0346 12.814 18.2303 12.8713 18.8732C12.8809 19.0036 12.7853 19.1154 12.6515 19.1248C12.6515 19.1248 12.6419 19.1248 12.6324 19.1248Z" fill="white"/>
<path d="M5.86527 22.2183C5.49251 22.2183 5.1293 22.1624 4.89991 22.0972L4.80433 22.0785C4.62272 22.0319 4.62272 22.0319 4.43156 22.0692L4.41244 22.0785C3.38973 22.2928 2.33834 21.6126 1.94646 20.8579C1.73618 20.4479 1.73618 20.0473 1.9369 19.7491C0.828166 18.6589 0.531866 18.2117 0.847283 16.4786C-0.261454 15.4722 -0.0129441 14.5498 0.292914 13.3944C0.321588 13.2826 0.350263 13.1801 0.378937 13.0589C0.407611 12.9471 0.417169 12.7049 0.426727 12.4626C0.426727 12.3881 0.436285 12.3042 0.436285 12.2297C0.417169 11.8104 0.828166 10.3568 0.914189 10.0679C0.952421 9.94682 1.08623 9.87228 1.21049 9.90955C1.33474 9.94682 1.41121 10.0773 1.37298 10.1984C1.17226 10.8972 0.895073 11.9874 0.914189 12.211C0.914189 12.2203 0.914189 12.2297 0.914189 12.239C0.914189 12.3228 0.904631 12.3974 0.904631 12.4812C0.895073 12.7701 0.885515 13.0217 0.837725 13.1801C0.80905 13.2919 0.780376 13.4037 0.751702 13.5155C0.445843 14.6709 0.254682 15.3697 1.25828 16.2177C1.32519 16.2736 1.35386 16.3574 1.33474 16.432C1.00021 18.193 1.24872 18.426 2.42437 19.572C2.47216 19.6186 2.50083 19.6839 2.49127 19.7491C2.49127 19.8143 2.4626 19.8702 2.40525 19.9168C2.14718 20.1311 2.27144 20.4666 2.35746 20.6529C2.67287 21.2586 3.52354 21.7897 4.28819 21.622L4.30731 21.6126C4.58449 21.5567 4.62272 21.5567 4.89991 21.622L4.99549 21.6499C5.53074 21.799 6.40052 21.799 6.68727 21.566C6.79241 21.4822 6.93578 21.5008 7.0218 21.594C7.10782 21.6965 7.08871 21.8363 6.99312 21.9201C6.75417 22.1437 6.30494 22.2183 5.86527 22.2183Z" fill="white"/>
<path d="M15.0792 3.84369C14.9358 3.84369 14.8402 3.73188 14.8402 3.60143C14.8594 3.02373 14.5631 2.39013 14.0278 1.84038C13.569 1.38381 13.1198 1.1695 12.8713 1.1695C12.7375 1.1695 12.6323 1.06701 12.6323 0.936557C12.6323 0.806108 12.7375 0.703613 12.8713 0.703613C13.3014 0.703613 13.8844 1.0111 14.3719 1.51426C14.9932 2.14786 15.3373 2.91192 15.3181 3.61075C15.3181 3.75052 15.213 3.84369 15.0792 3.84369Z" fill="white"/>
<path d="M12.7855 3.23824C12.6995 3.23824 12.6134 3.19165 12.5752 3.11711C12.5179 3.00529 12.5561 2.86553 12.6708 2.8003C12.7281 2.77235 12.8333 2.66986 12.6899 2.39964C12.6899 2.39032 12.6804 2.38101 12.6804 2.37169C12.451 1.81262 11.5429 1.67286 11.1511 1.61695L11.1033 1.60763C10.9695 1.589 10.8834 1.46787 10.9026 1.33742C10.9217 1.20697 11.0459 1.12311 11.1797 1.14175L11.2275 1.15106C11.6959 1.21629 12.7855 1.38401 13.12 2.18533C13.2443 2.40896 13.2825 2.62327 13.2156 2.81894C13.1391 3.07052 12.9289 3.19165 12.9002 3.20097C12.862 3.22892 12.8237 3.23824 12.7855 3.23824Z" fill="white"/>
<path d="M14.9361 5.76288C14.8214 5.76288 14.7163 5.67902 14.6972 5.55789C14.506 4.08568 13.3591 3.28436 12.3172 3.26572C11.457 3.24709 10.4438 3.75956 10.1858 5.26904C10.1762 5.34358 10.1284 5.39949 10.0615 5.43676C9.99462 5.47403 9.91815 5.47403 9.85125 5.44608C9.51671 5.29699 9.316 5.17586 9.24909 4.98019C9.19174 4.81247 9.2682 4.6727 9.33511 4.54225C9.42113 4.39317 9.51671 4.22545 9.47848 3.89001C9.47848 3.88069 9.47848 3.88069 9.47848 3.87138C9.44981 3.81547 9.21086 3.71298 9.07704 3.65707C8.83809 3.56389 8.59914 3.4614 8.45577 3.28436C8.38886 3.2005 8.36975 3.098 8.38886 2.99551C8.46533 2.58553 9.2682 2.03578 9.6123 1.81216C9.72699 1.73761 9.87036 1.77488 9.94683 1.87738C10.0233 1.98919 9.98506 2.12896 9.87992 2.2035C9.41158 2.50167 8.9719 2.87438 8.88588 3.0421C8.9719 3.10732 9.13439 3.17255 9.2682 3.22845C9.58362 3.3589 9.93727 3.49867 9.96594 3.84342C10.0233 4.31863 9.86081 4.59816 9.77478 4.76588C9.76522 4.78452 9.74611 4.82179 9.73655 4.84042C9.74611 4.84974 9.76522 4.86838 9.7939 4.88701C9.95639 4.2534 10.2622 3.74093 10.6924 3.37754C11.1416 2.99551 11.7246 2.79052 12.3459 2.80915C13.598 2.83711 14.9744 3.7782 15.1942 5.5113C15.2133 5.64175 15.1177 5.75356 14.9839 5.7722C14.9553 5.76288 14.9457 5.76288 14.9361 5.76288Z" fill="white"/>
<path d="M10.367 7.98096C9.95599 7.98096 9.58322 7.86914 9.24869 7.76665C9.17223 7.74801 9.10532 7.72006 9.03841 7.70142C8.62742 7.57097 8.41714 7.28212 8.43626 6.88146C8.46493 6.14536 9.32516 5.12972 9.88908 4.99928C10.0133 4.97132 10.1472 5.04586 10.1758 5.167C10.2045 5.28813 10.128 5.41857 10.0038 5.44653C9.68836 5.53039 8.93328 6.33171 8.91416 6.9001C8.9046 7.08645 8.99062 7.18895 9.18178 7.25417C9.24869 7.27281 9.3156 7.29144 9.39206 7.3194C9.76483 7.43121 10.1472 7.54302 10.5581 7.49643C10.9405 7.44984 11.3706 7.0585 11.5044 6.90941C11.5904 6.81624 11.7434 6.80692 11.8389 6.89078C11.9345 6.97464 11.9441 7.12372 11.858 7.2169C11.8294 7.24485 11.2463 7.88778 10.6059 7.96232C10.5295 7.98096 10.4435 7.98096 10.367 7.98096Z" fill="white"/>
<path d="M12.2403 5.26915C12.1543 5.26915 12.0778 5.22257 12.03 5.14802C11.9822 5.0828 11.7337 4.9244 11.4947 4.9244C11.3514 4.9244 11.2367 4.98962 11.1507 5.12939C11.0742 5.2412 10.9308 5.26915 10.8161 5.19461C10.7014 5.12007 10.6728 4.9803 10.7492 4.86849C10.9404 4.57964 11.2271 4.43056 11.5617 4.44919C11.6572 4.45851 11.7528 4.46783 11.8388 4.49578C11.8006 4.39329 11.7624 4.30011 11.7241 4.23488C11.6572 4.12307 11.6955 3.98331 11.8102 3.91808C11.9249 3.85286 12.0682 3.89013 12.1351 4.00194C12.3072 4.29079 12.4506 4.90576 12.4697 4.97099C12.4983 5.0828 12.4314 5.20393 12.3167 5.2412C12.2881 5.26915 12.269 5.26915 12.2403 5.26915ZM12.0204 5.14802C12.03 5.14802 12.03 5.14802 12.0204 5.14802C12.03 5.14802 12.03 5.14802 12.0204 5.14802Z" fill="white"/>
<path d="M15.0314 8.75431C14.9071 8.75431 14.802 8.66113 14.7924 8.53069C14.7638 7.9064 14.4292 7.81322 13.9131 7.66414C13.5977 7.57096 13.2345 7.46846 12.9669 7.19825C12.2691 6.49942 12.164 5.86581 12.0875 5.43719C12.0588 5.27879 12.0397 5.13903 11.9919 5.0738C11.9155 4.97131 11.9441 4.82222 12.0493 4.74768C12.1544 4.67314 12.3073 4.70109 12.3838 4.80359C12.489 4.95267 12.5272 5.13903 12.5654 5.35333C12.6323 5.73536 12.7279 6.26647 13.3205 6.86281C13.5021 7.04916 13.7793 7.12371 14.066 7.20757C14.5822 7.35665 15.2321 7.543 15.2799 8.50273C15.2895 8.63318 15.1843 8.74499 15.0505 8.74499C15.041 8.75431 15.041 8.75431 15.0314 8.75431Z" fill="white"/>
<path d="M1.0671 16.6093C1.00019 16.6093 0.942846 16.5813 0.895055 16.5348C0.1782 15.8173 0.742126 14.2985 1.68838 13.3947C2.34788 12.7611 3.0743 12.5561 3.6669 12.8077C3.71469 11.2889 5.21531 8.95943 6.68725 7.83198C7.65261 7.09588 8.53196 6.90021 9.22014 7.27292C9.33484 7.33814 9.38263 7.47791 9.31572 7.58972C9.24881 7.70154 9.10544 7.74813 8.99074 7.6829C8.35035 7.33814 7.53792 7.77608 6.98355 8.20469C5.33956 9.46259 3.87718 12.0902 4.18303 13.227C4.21171 13.3295 4.16392 13.4319 4.06834 13.4879C3.97276 13.5438 3.85806 13.5251 3.78159 13.4506C3.13165 12.8077 2.33832 13.4319 2.02291 13.7301C1.26782 14.4569 0.751684 15.7241 1.23915 16.218C1.33473 16.3111 1.32517 16.4602 1.22959 16.5441C1.1818 16.5907 1.12445 16.6093 1.0671 16.6093Z" fill="white"/>
<path d="M12.7375 11.3726C12.3934 11.3726 12.0588 11.3353 11.7721 11.2794C11.256 11.1769 10.9119 10.7949 10.6442 10.4874C10.4913 10.3104 10.3097 10.1147 10.2046 10.1147C10.1568 10.1147 10.0899 10.152 10.0134 10.2358C9.91784 10.329 9.77447 10.329 9.67888 10.2452C9.5833 10.152 9.5833 10.0122 9.66933 9.91904C9.85093 9.74201 10.023 9.65815 10.2141 9.65815C10.5296 9.66747 10.7589 9.91904 10.9979 10.1986C11.2464 10.4781 11.5045 10.767 11.8581 10.8415C12.6801 10.9999 13.7889 10.9533 14.4292 10.4781C14.7064 10.2731 14.8594 10.0122 14.8785 9.69542C14.888 9.56497 15.0027 9.47179 15.1365 9.48111C15.2704 9.49043 15.3659 9.60224 15.3564 9.73269C15.3181 10.1799 15.0983 10.562 14.716 10.8508C14.1903 11.2328 13.4352 11.3726 12.7375 11.3726Z" fill="white"/>
<path d="M13.5024 17.0748C13.445 17.0748 13.3972 17.0561 13.3495 17.0189C12.8046 16.5623 12.5657 16.1523 12.365 15.8262C12.0113 15.2205 11.801 14.8572 9.79385 14.6894C7.98737 14.5031 7.00289 13.2172 6.97421 12.1084C6.9551 11.3537 7.40433 10.4871 8.71378 10.2915C9.40197 10.0958 9.8034 9.88148 9.89899 9.66717C9.96589 9.51809 9.89899 9.35037 9.77473 9.07084C9.60269 8.69813 9.37329 8.18565 9.78429 7.62659C9.86075 7.52409 10.0137 7.49614 10.1188 7.57068C10.224 7.64522 10.2526 7.7943 10.1762 7.8968C9.93722 8.22292 10.0328 8.48382 10.2144 8.87516C10.3482 9.17333 10.5011 9.50877 10.3387 9.85353C10.1666 10.2076 9.70782 10.4778 8.83804 10.7294C8.82848 10.7294 8.81892 10.7387 8.80937 10.7387C7.94914 10.8598 7.45212 11.3723 7.46168 12.0898C7.48079 13.0029 8.3219 14.0558 9.8512 14.2142C12.0018 14.3913 12.3554 14.8199 12.7951 15.5839C12.9767 15.9007 13.187 16.2548 13.6649 16.6555C13.77 16.7393 13.7796 16.8884 13.6935 16.9816C13.6362 17.0468 13.5693 17.0748 13.5024 17.0748Z" fill="white"/>
<path d="M11.0267 17.4382C10.9789 17.4382 10.9311 17.4289 10.8929 17.4009C10.8738 17.3916 8.92393 16.0219 9.04818 14.9876C9.05774 14.8851 9.09597 14.7733 9.17244 14.6615C8.97172 14.6708 8.80923 14.6988 8.62763 14.7361C8.2931 14.8013 7.92033 14.8665 7.20347 14.792C7.19392 14.792 7.19392 14.792 7.18436 14.792C6.01827 14.5497 4.89042 13.5434 4.63235 12.4998C4.46031 11.8196 4.67058 11.2139 5.21539 10.776C5.21539 10.776 5.22495 10.776 5.22495 10.7667C5.4639 10.5897 5.75065 10.5803 6.04695 10.6362C5.92269 10.4965 5.82711 10.3288 5.76021 10.1051C5.72197 9.984 5.79844 9.85356 5.92269 9.81628C6.04695 9.77901 6.18076 9.85356 6.21899 9.97469C6.39104 10.5338 6.89762 10.6362 7.27038 10.7201C7.49977 10.7667 7.7005 10.8133 7.7674 10.9903C7.79608 11.0649 7.80563 11.1767 7.70049 11.3164C7.46154 11.6239 7.04099 11.4655 6.59176 11.2978C6.21899 11.158 5.75065 10.981 5.52125 11.1487C5.01468 11.5494 5.01468 12.0525 5.1007 12.3973C5.32053 13.2639 6.29546 14.1304 7.27994 14.3447C7.91077 14.4193 8.21663 14.354 8.54161 14.2981C8.87614 14.2329 9.22023 14.1677 9.86062 14.2608C9.96576 14.2795 10.0518 14.3633 10.0613 14.4658C10.0709 14.5683 10.0135 14.6708 9.90841 14.7081C9.55476 14.8386 9.53565 15.0156 9.52609 15.0715C9.45918 15.6492 10.6731 16.7114 11.1701 17.0469C11.2752 17.1214 11.3039 17.2612 11.237 17.373C11.1796 17.4009 11.1032 17.4382 11.0267 17.4382Z" fill="white"/>
<path d="M4.75656 10.4406C4.67054 10.4406 4.58452 10.3941 4.54628 10.3102C4.52717 10.2729 4.14484 9.47159 4.71833 8.3721C5.12933 7.58009 5.31093 7.33783 5.40651 7.25397C5.52121 7.09557 5.62635 6.93717 5.73149 6.77877C6.51525 5.63268 7.31813 4.44001 9.44002 4.51455C9.57383 4.51455 9.67897 4.62637 9.66941 4.75681C9.65985 4.88726 9.55472 4.98976 9.4209 4.98044C7.57619 4.91522 6.90713 5.9029 6.13292 7.03966C6.01823 7.20738 5.90353 7.3751 5.77928 7.54282C5.76972 7.56146 5.7506 7.58009 5.73149 7.58941C5.70281 7.61736 5.55944 7.7944 5.13888 8.58641C4.67054 9.48091 4.96684 10.0959 4.96684 10.1052C5.02419 10.217 4.9764 10.3568 4.8617 10.4127C4.82347 10.4313 4.78524 10.4406 4.75656 10.4406Z" fill="white"/>
<path d="M3.0649 13.1055C3.02667 13.1055 2.98844 13.0962 2.95976 13.0776C2.67302 12.9378 2.50097 12.7421 2.43407 12.4999C2.30025 11.9595 2.77816 11.3445 3.18915 10.7947C3.37076 10.5525 3.5428 10.3288 3.62883 10.1518C3.68617 10.04 3.82955 9.98409 3.94424 10.04C4.05894 10.0959 4.11629 10.2357 4.05894 10.3475C3.9538 10.5618 3.76264 10.8041 3.57148 11.065C3.23695 11.5029 2.81639 12.0526 2.89285 12.3788C2.90241 12.416 2.93109 12.5372 3.16048 12.649C3.27518 12.7049 3.32297 12.8446 3.26562 12.9658C3.23694 13.0589 3.16048 13.1055 3.0649 13.1055Z" fill="white"/>
<path d="M1.92726 12.8449C1.8508 12.8449 1.78389 12.817 1.7361 12.7517C1.37289 12.2859 1.86035 11.3727 2.25224 10.6366C2.33826 10.4782 2.40516 10.3384 2.46251 10.236C2.63456 9.86324 2.91174 9.54644 3.16981 9.24827C3.67639 8.67057 4.11606 8.16741 3.89622 7.28223C3.86755 7.1611 3.94402 7.03065 4.06827 7.00269C4.19252 6.97474 4.32634 7.04928 4.35501 7.17041C4.6322 8.28854 4.04915 8.95942 3.53302 9.54644C3.28451 9.83529 3.04556 10.1055 2.89263 10.4223C2.83528 10.5434 2.75881 10.6832 2.67279 10.8416C2.45296 11.2609 1.92726 12.2299 2.10886 12.4536C2.18533 12.5561 2.16621 12.7052 2.06107 12.7797C2.02284 12.8356 1.97505 12.8449 1.92726 12.8449Z" fill="white"/>
<path d="M1.2393 11.3072C1.22975 11.3072 1.21063 11.3072 1.20107 11.3072C1.06726 11.2886 0.981235 11.1675 1.00991 11.037C1.22019 9.83503 2.59655 8.41873 3.92512 7.04902C4.52728 6.43405 5.09121 5.85635 5.53088 5.3066C5.62646 5.18547 5.7316 5.03639 5.83674 4.88731C6.09481 4.5146 6.39111 4.08598 6.81166 3.77849C6.9168 3.70395 7.06973 3.72259 7.14619 3.82508C7.22266 3.92758 7.20354 4.07666 7.0984 4.1512C6.74476 4.40278 6.47713 4.79413 6.22862 5.13889C6.11392 5.29729 6.00878 5.45569 5.90364 5.58614C5.44486 6.1452 4.87137 6.73222 4.26921 7.35651C2.97887 8.68895 1.65986 10.0493 1.4687 11.1116C1.44958 11.2327 1.354 11.3072 1.2393 11.3072Z" fill="white"/>
<path d="M2.75908 8.78195C2.63482 8.78195 2.52969 8.67946 2.52013 8.55833C2.49145 7.93404 2.71129 7.29111 2.8451 6.96499C3.00759 6.57365 3.2561 6.09844 3.49505 5.94004C3.60019 5.8655 3.75312 5.89345 3.82958 6.00526C3.90605 6.10776 3.87737 6.25684 3.76268 6.33139C3.56196 6.47115 2.9598 7.63587 2.99803 8.54901C3.00759 8.67946 2.90245 8.78195 2.76864 8.79127C2.76864 8.78195 2.76864 8.78195 2.75908 8.78195Z" fill="white"/>
<path d="M5.75078 15.3322C5.19641 15.3322 4.59425 15.2204 4.37441 14.8756C4.30751 14.7638 4.33618 14.624 4.45088 14.5588C4.56558 14.4936 4.70895 14.5215 4.77585 14.6333C4.84276 14.7358 5.15818 14.8476 5.64564 14.8663C6.20956 14.8849 6.62056 14.7731 6.74482 14.6892C6.73526 14.6799 6.71614 14.6613 6.68747 14.6427C6.58233 14.5681 6.56321 14.419 6.63968 14.3165C6.71614 14.214 6.86907 14.1954 6.97421 14.2699C7.24184 14.4749 7.26095 14.6613 7.22272 14.7917C7.15581 15.0433 6.84996 15.211 6.3147 15.2949C6.15222 15.3135 5.9515 15.3322 5.75078 15.3322Z" fill="white"/>
<path d="M0.474638 13.9256C0.455522 13.9256 0.426848 13.9256 0.407732 13.9162C0.283477 13.879 0.207012 13.7485 0.245244 13.6274C0.598893 12.5093 1.49735 12.2577 1.53558 12.2484C1.65984 12.2111 1.79365 12.2856 1.83188 12.4161C1.87012 12.5372 1.79365 12.6677 1.6694 12.7049C1.64072 12.7143 0.981216 12.9099 0.71359 13.7672C0.6658 13.8603 0.579777 13.9256 0.474638 13.9256Z" fill="white"/>
<path d="M7.14644 21.0537C6.69721 21.0537 6.20975 20.9326 5.80831 20.7648C5.16792 20.5039 4.46062 20.0287 4.41283 19.4697C4.3746 18.9293 4.45106 18.7895 4.52753 18.7149C4.62311 18.6311 4.77604 18.6311 4.86206 18.7243C4.93852 18.7988 4.94808 18.9106 4.89073 19.0038C4.88117 19.0317 4.86206 19.1436 4.88117 19.4324C4.90985 19.7119 5.35908 20.0753 5.98991 20.3362C6.70677 20.6251 7.43318 20.6717 7.71037 20.4387C7.84418 20.3269 7.88241 20.1312 7.82506 19.8517C7.76771 19.7119 7.76771 19.5535 7.76771 19.3765C7.76771 18.9665 7.72948 18.7615 7.44274 18.659C7.24202 18.5938 6.90749 18.5565 6.55384 18.5193C5.70317 18.4354 4.64222 18.3236 4.21211 17.69C4.13564 17.5875 4.16432 17.4384 4.27902 17.3639C4.38415 17.2893 4.53708 17.3173 4.61355 17.4291C4.92897 17.8763 5.86566 17.9788 6.61119 18.0534C7.01263 18.0907 7.35672 18.1279 7.60523 18.2118C8.24562 18.4261 8.24562 19.0131 8.24562 19.3672C8.24562 19.479 8.24562 19.6188 8.27429 19.6747C8.28385 19.6933 8.28385 19.7026 8.29341 19.7213C8.42722 20.3083 8.2265 20.6251 8.02578 20.7835C7.79639 20.9792 7.48097 21.0537 7.14644 21.0537Z" fill="white"/>
<path d="M5.81768 19.5068C5.80813 19.5068 5.79857 19.5068 5.78901 19.5068C5.26332 19.4416 4.50823 19.0689 4.40309 19.0223C3.40905 18.6216 2.98849 17.0469 3.29435 15.9567C3.52375 15.1554 4.09723 14.7454 4.8332 14.8572C4.96702 14.8759 5.05304 14.997 5.03392 15.1275C5.01481 15.2579 4.89055 15.3418 4.75674 15.3231C4.13546 15.23 3.86784 15.6865 3.75314 16.0872C3.50463 16.9724 3.83916 18.3048 4.58469 18.603C4.59425 18.603 4.59425 18.6123 4.60381 18.6123C4.61337 18.6123 5.36846 18.9943 5.8368 19.0502C5.97061 19.0689 6.05664 19.1807 6.04708 19.3111C6.03752 19.4229 5.93238 19.5068 5.81768 19.5068Z" fill="white"/>
<path d="M3.0076 20.1498C2.826 20.1498 2.54881 20.0939 2.14737 19.9914C2.02312 19.9542 1.94665 19.833 1.97533 19.7026C2.01356 19.5815 2.13782 19.5069 2.27163 19.5349C2.53925 19.6094 2.72086 19.6467 2.83556 19.6653C2.80688 19.6187 2.76865 19.5815 2.73997 19.5349C2.46279 19.1622 2.05179 18.5845 2.22384 18.0068C2.3003 17.7459 2.48191 17.5222 2.77821 17.3359C2.51058 17.2241 2.20472 17.0284 1.99444 16.7116C1.68859 16.2643 1.65035 15.6773 1.87019 14.9878C1.90842 14.8667 2.04223 14.7921 2.16649 14.8387C2.29074 14.876 2.36721 15.0064 2.31942 15.1276C2.14737 15.6773 2.16649 16.1246 2.38633 16.46C2.72086 16.9632 3.42816 17.047 3.43771 17.047C3.54285 17.0564 3.62888 17.1402 3.64799 17.252C3.66711 17.3545 3.6002 17.457 3.49506 17.5036C3.02672 17.69 2.74953 17.9043 2.67307 18.1558C2.55837 18.5192 2.88335 18.9572 3.11274 19.2833C3.32302 19.5721 3.49506 19.8051 3.34213 20.0194C3.28478 20.1033 3.17965 20.1498 3.0076 20.1498Z" fill="white"/>
<path d="M1.34422 18.9103C1.24864 18.9103 1.15306 18.8544 1.12439 18.7612C0.866317 18.0996 1.05748 17.2424 1.54494 16.8417C1.87947 16.5715 2.30959 16.5529 2.72058 16.7952C2.83528 16.8604 2.87351 17.0095 2.79705 17.112C2.73014 17.2238 2.57721 17.261 2.47207 17.1865C2.23312 17.0467 2.0324 17.0467 1.8508 17.1958C1.51627 17.466 1.38245 18.1276 1.56406 18.5935C1.61185 18.7146 1.54494 18.8451 1.43024 18.8916C1.40157 18.901 1.3729 18.9103 1.34422 18.9103Z" fill="white"/>
<path d="M5.26296 22.1625C5.2534 22.1625 5.23428 22.1625 5.22472 22.1625C5.15782 22.1531 3.59985 21.8736 3.19841 20.858C3.15062 20.7368 3.20797 20.6064 3.33223 20.5598C3.45648 20.5132 3.59029 20.5691 3.63808 20.6903C3.94394 21.4636 5.28207 21.7059 5.30119 21.7059C5.435 21.7245 5.52102 21.8457 5.49235 21.9761C5.47323 22.0879 5.37765 22.1625 5.26296 22.1625Z" fill="white"/>
<path d="M22.9549 22.4792C22.7829 22.4792 22.6108 22.4699 22.4388 22.442C20.6992 22.1997 18.5964 20.7182 18.4913 19.1621C18.3957 17.7086 20.0397 17.0284 21.0433 16.7582C21.0529 16.7582 21.0624 16.7582 21.072 16.7488L21.1484 16.7395C23.5475 16.3575 24.532 16.1618 24.6085 15.0716C24.618 14.9412 24.7327 14.848 24.8665 14.8573C25.0003 14.8666 25.0959 14.9785 25.0864 15.1089C24.9812 16.6091 23.5666 16.8327 21.2249 17.2054L21.158 17.2147C19.6669 17.6247 18.9118 18.2863 18.9692 19.1342C19.0552 20.3362 20.8043 21.7431 22.5152 21.9761C23.2034 22.0693 24.4173 22.032 24.9048 20.7089C24.9526 20.5877 25.0864 20.5225 25.2106 20.5691C25.3349 20.6157 25.4018 20.7461 25.354 20.8673C24.9526 21.9109 24.1019 22.4792 22.9549 22.4792Z" fill="white"/>
<path d="M18.759 19.1248C18.7495 19.1248 18.7495 19.1248 18.7399 19.1248C18.6061 19.1155 18.5105 19.0037 18.5201 18.8732C18.5774 18.2303 18.4627 18.0253 18.3958 17.9694C18.2811 17.8669 18.0039 17.9228 17.7172 17.9881C17.268 18.0812 16.7136 18.2024 16.3121 17.7831C15.9394 17.5315 16.0254 16.8699 16.3121 16.3109C16.4364 15.9661 16.4364 15.6307 16.4268 15.3045C16.4268 14.8293 16.4173 14.3355 16.7996 13.851C15.796 12.4254 15.9489 10.3289 16.0827 8.46532C16.121 7.93421 16.1592 7.44037 16.1688 6.97448C16.1688 6.96516 16.1688 6.96516 16.1688 6.95584C16.2644 5.8284 16.1783 4.71958 16.0827 3.64804C16.0254 2.94921 15.9585 2.23175 15.9585 1.50496C15.9585 1.49564 15.9585 1.49564 15.9585 1.48633C15.9872 1.13225 16.1783 0.85272 16.5129 0.685001C17.3253 0.284338 18.8164 0.610459 19.409 0.945898C21.1199 1.16021 22.7161 2.37151 24.1211 3.43374C24.6563 3.84372 25.1629 4.22574 25.6599 4.54255C26.7304 4.85935 28.0686 5.8843 29.0817 7.16083C30.2191 8.59577 30.697 10.0307 30.4007 11.1022C30.4007 11.3538 30.2765 11.5122 30.1809 11.624C30.0853 11.7452 30.028 11.8104 30.0567 11.9874C30.0567 11.9967 30.0567 11.9967 30.0567 12.0061C30.0758 12.2763 29.9993 12.5092 29.8273 12.6956C29.5405 13.0031 28.9957 13.1428 28.1833 13.1335C28.0017 13.1335 27.8296 13.2174 27.734 13.3665C27.5907 13.5901 27.4855 13.851 27.3613 14.1305C26.979 15.0343 26.5106 16.1525 24.5608 16.3388C24.427 16.3481 24.3123 16.255 24.3027 16.1338C24.2931 16.0127 24.3887 15.8916 24.513 15.8822C26.1761 15.7238 26.5393 14.8666 26.9216 13.9628C27.0363 13.6833 27.1606 13.3851 27.323 13.1335C27.5047 12.854 27.8392 12.6769 28.1833 12.6769C28.8332 12.6863 29.2825 12.5838 29.4736 12.3881C29.5501 12.3042 29.5883 12.2017 29.5788 12.0713C29.5214 11.7079 29.6839 11.5029 29.7986 11.3538C29.8846 11.2513 29.9228 11.1954 29.9133 11.1022C29.9133 11.0743 29.9133 11.0463 29.9228 11.0277C30.5346 8.95916 27.4855 5.5675 25.4879 4.99912C25.4688 4.9898 25.4401 4.98048 25.421 4.97116C24.9049 4.63573 24.3792 4.24438 23.8248 3.82508C22.3815 2.73491 20.8905 1.60746 19.2943 1.4211C19.256 1.4211 19.2274 1.40247 19.1987 1.38383C18.673 1.06703 17.3253 0.815449 16.7231 1.11362C16.5415 1.20679 16.446 1.33724 16.4268 1.5236C16.4364 2.22243 16.4937 2.93058 16.5511 3.62009C16.6467 4.71027 16.7423 5.8284 16.6371 6.99311C16.6276 7.459 16.5893 7.96216 16.5511 8.49327C16.4173 10.3382 16.2644 12.4347 17.2871 13.7205C17.3635 13.8137 17.354 13.9348 17.2775 14.0187C16.9047 14.41 16.9047 14.8014 16.9047 15.2952C16.9047 15.6493 16.9047 16.05 16.7518 16.4786C16.7518 16.4879 16.7423 16.4972 16.7423 16.5065C16.4746 17.0097 16.5224 17.3638 16.5798 17.401C16.6084 17.4104 16.6276 17.429 16.6467 17.4569C16.8474 17.6806 17.1437 17.6433 17.612 17.5408C18.0039 17.4569 18.4054 17.3731 18.7017 17.6247C18.9597 17.8483 19.0458 18.249 18.9884 18.9198C18.9884 19.0316 18.8833 19.1248 18.759 19.1248Z" fill="white"/>
<path d="M25.5355 22.2185C25.0959 22.2185 24.6466 22.144 24.3695 21.9203C24.2643 21.8365 24.2548 21.6874 24.3408 21.5942C24.4268 21.4917 24.5797 21.4824 24.6753 21.5663C24.9621 21.7992 25.8318 21.7992 26.3671 21.6501L26.4722 21.6222C26.7494 21.5476 26.7876 21.5476 27.0648 21.6128L27.0839 21.6222C27.8582 21.7899 28.7088 21.2494 29.0147 20.6531C29.1103 20.4761 29.225 20.1406 28.9669 19.917C28.9191 19.8704 28.8904 19.8145 28.8809 19.7493C28.8809 19.6841 28.9 19.6188 28.9478 19.5723C30.133 18.4355 30.3815 18.1932 30.0374 16.4322C30.0183 16.3483 30.047 16.2645 30.1139 16.2179C31.1175 15.3699 30.9263 14.6711 30.6204 13.5157C30.5918 13.4039 30.5631 13.2921 30.5344 13.1803C30.4962 13.0219 30.4866 12.7796 30.4771 12.4908C30.4771 12.4162 30.4675 12.3324 30.4675 12.2485C30.4675 12.2392 30.4675 12.2299 30.4675 12.2206C30.4866 11.9876 30.2094 10.9067 30.0087 10.2079C29.9705 10.0868 30.0469 9.95634 30.1712 9.91907C30.2955 9.8818 30.4293 9.95634 30.4675 10.0775C30.5535 10.3663 30.9645 11.8199 30.9454 12.2392C30.9454 12.3137 30.955 12.3976 30.955 12.4721C30.9645 12.7144 30.9741 12.9567 31.0028 13.0685C31.0314 13.1896 31.0601 13.2921 31.0888 13.4039C31.3946 14.5593 31.6432 15.4818 30.5344 16.4881C30.8498 18.2212 30.5631 18.6684 29.4448 19.7586C29.6455 20.0568 29.6455 20.4574 29.4352 20.8674C29.0434 21.6222 27.992 22.3024 26.9692 22.088L26.9501 22.0787C26.759 22.0415 26.759 22.0415 26.5774 22.088L26.4818 22.116C26.262 22.1626 25.8987 22.2185 25.5355 22.2185Z" fill="white"/>
<path d="M16.3124 3.84365C16.1881 3.84365 16.0734 3.74116 16.0734 3.62003C16.0448 2.9212 16.3889 2.15714 17.0197 1.52353C17.5167 1.02038 18.0902 0.712891 18.5203 0.712891C18.6541 0.712891 18.7593 0.815386 18.7593 0.945834C18.7593 1.07628 18.6541 1.17878 18.5203 1.17878C18.2718 1.17878 17.813 1.38377 17.3638 1.84966C16.8285 2.39008 16.5322 3.03301 16.5513 3.61071C16.5513 3.73184 16.4558 3.84365 16.3124 3.84365C16.3219 3.84365 16.3124 3.84365 16.3124 3.84365Z" fill="white"/>
<path d="M18.6064 3.2382C18.5682 3.2382 18.5299 3.22888 18.4917 3.21024C18.4726 3.20093 18.2527 3.0798 18.1763 2.82822C18.1189 2.63254 18.1476 2.41824 18.2719 2.19461C18.616 1.39328 19.7056 1.23488 20.1644 1.16034L20.2121 1.15102C20.346 1.13239 20.4607 1.21625 20.4893 1.3467C20.518 1.47714 20.4224 1.58896 20.2886 1.61691L20.2408 1.62623C19.8489 1.68213 18.9409 1.8219 18.7115 2.38096C18.7115 2.39028 18.702 2.3996 18.702 2.40892C18.5586 2.66981 18.6637 2.77231 18.7211 2.80958C18.8358 2.86549 18.8836 3.00525 18.8167 3.12638C18.7784 3.19161 18.6924 3.2382 18.6064 3.2382Z" fill="white"/>
<path d="M16.4648 5.76288C16.4552 5.76288 16.4457 5.76288 16.4361 5.76288C16.3023 5.74424 16.2163 5.63243 16.2258 5.50198C16.3883 4.18818 17.4206 2.8371 19.0741 2.79983C19.6858 2.79051 20.2689 2.98619 20.7277 3.36821C21.1578 3.73161 21.4636 4.24408 21.6261 4.87769C21.6548 4.85905 21.6739 4.84974 21.6835 4.8311C21.6739 4.81247 21.6548 4.78451 21.6453 4.75656C21.5497 4.58884 21.3967 4.30931 21.4541 3.8341C21.4732 3.49866 21.8364 3.34958 22.1518 3.21913C22.2856 3.16322 22.4577 3.098 22.5342 3.03278C22.4481 2.86506 22.0085 2.50166 21.5401 2.19418C21.4254 2.11964 21.3967 1.97987 21.4732 1.86806C21.5497 1.75624 21.693 1.72829 21.8077 1.80283C22.1518 2.01714 22.9547 2.57621 23.0312 2.98619C23.0503 3.098 23.0312 3.19118 22.9643 3.27504C22.8305 3.45207 22.5819 3.55457 22.343 3.64775C22.2092 3.70365 21.9702 3.79683 21.9416 3.86206C21.9416 3.87137 21.9416 3.87137 21.9416 3.87137C21.9033 4.19749 21.9989 4.37453 22.0849 4.52362C22.1518 4.64475 22.2283 4.78451 22.1709 4.96155C22.104 5.1479 21.9033 5.27835 21.5688 5.42744C21.5019 5.45539 21.4254 5.45539 21.3585 5.41812C21.2916 5.38085 21.2438 5.32494 21.2343 5.2504C20.9762 3.75024 19.9535 3.22845 19.1028 3.24708C18.061 3.26572 16.9044 4.06705 16.7228 5.53925C16.6846 5.67902 16.5795 5.76288 16.4648 5.76288Z" fill="white"/>
<path d="M21.0244 7.98081C20.948 7.98081 20.8619 7.98081 20.7759 7.97149C20.1355 7.89695 19.5525 7.25402 19.5238 7.22607C19.4378 7.13289 19.4473 6.98381 19.5429 6.89995C19.6385 6.81609 19.7914 6.82541 19.8775 6.91858C20.0113 7.06767 20.4414 7.46833 20.8237 7.5056C21.2347 7.55219 21.617 7.44038 21.9898 7.32856C22.0663 7.30993 22.1427 7.28198 22.2096 7.26334C22.3912 7.20743 22.4773 7.09562 22.4677 6.90927C22.4486 6.34088 21.6839 5.53024 21.3781 5.4557C21.2538 5.42774 21.1678 5.2973 21.206 5.17616C21.2347 5.05503 21.3685 4.97117 21.4928 5.00845C22.0567 5.14821 22.9169 6.16385 22.9456 6.89063C22.9647 7.29129 22.7544 7.58014 22.353 7.71059C22.2765 7.72923 22.2001 7.75718 22.1332 7.77582C21.8177 7.86899 21.445 7.98081 21.0244 7.98081Z" fill="white"/>
<path d="M19.1608 5.26932C19.1321 5.26932 19.1035 5.26932 19.0844 5.26C18.9697 5.22273 18.9028 5.1016 18.9314 4.98978C18.9505 4.92456 19.0939 4.30027 19.266 4.02074C19.3329 3.90893 19.4762 3.87166 19.5909 3.93688C19.7056 4.0021 19.7439 4.14187 19.677 4.25368C19.6387 4.30959 19.6005 4.41208 19.5623 4.51458C19.6483 4.48663 19.7439 4.46799 19.8394 4.46799C20.174 4.44936 20.4607 4.59844 20.6519 4.88729C20.7283 4.9991 20.6901 5.13887 20.585 5.21341C20.4703 5.28795 20.3269 5.25068 20.2504 5.14819C20.1644 5.00842 20.0497 4.9432 19.9064 4.9432C19.6674 4.93388 19.4189 5.1016 19.3711 5.16682C19.3233 5.23205 19.2468 5.26932 19.1608 5.26932Z" fill="white"/>
<path d="M16.36 8.75427H16.3505C16.2167 8.74495 16.1211 8.64246 16.1211 8.51201C16.1689 7.5616 16.8188 7.37524 17.335 7.21684C17.6217 7.13298 17.8893 7.05844 18.0805 6.87209C18.6731 6.27575 18.7687 5.74464 18.8356 5.36261C18.8738 5.1483 18.9025 4.96195 19.0172 4.81286C19.0937 4.71037 19.2466 4.68242 19.3517 4.75696C19.4569 4.8315 19.4855 4.98058 19.4091 5.08308C19.3613 5.1483 19.3422 5.28807 19.3135 5.44647C19.237 5.86577 19.1319 6.49938 18.4341 7.20753C18.1665 7.47774 17.8033 7.58955 17.4879 7.67341C16.9813 7.8225 16.6468 7.91567 16.6086 8.53996C16.5894 8.66109 16.4843 8.75427 16.36 8.75427Z" fill="white"/>
<path d="M30.3246 16.6093C30.2673 16.6093 30.2004 16.5907 30.1621 16.5441C30.0665 16.4509 30.0665 16.3111 30.1526 16.218C30.64 15.7241 30.1239 14.4569 29.3688 13.7301C29.0629 13.4319 28.2696 12.8077 27.6101 13.4506C27.5337 13.5251 27.419 13.5438 27.3234 13.4879C27.2278 13.4319 27.18 13.3295 27.2087 13.227C27.5145 12.0902 26.0522 9.46259 24.4082 8.20469C23.8442 7.77608 23.0414 7.33814 22.401 7.6829C22.2863 7.74813 22.1429 7.70154 22.076 7.58972C22.0091 7.47791 22.0569 7.33814 22.1716 7.27292C22.8598 6.90021 23.7391 7.09588 24.7045 7.83198C26.186 8.95943 27.6866 11.2889 27.7248 12.8077C28.3174 12.5561 29.0343 12.7611 29.7033 13.3947C30.6496 14.3078 31.2135 15.8173 30.4967 16.5348C30.4584 16.5907 30.3915 16.6093 30.3246 16.6093Z" fill="white"/>
<path d="M18.6535 11.3724C17.9558 11.3724 17.2103 11.2327 16.6655 10.832C16.2831 10.5525 16.0633 10.1611 16.0251 9.71389C16.0155 9.58344 16.1111 9.47163 16.2449 9.46231C16.3787 9.45299 16.4934 9.54617 16.503 9.67662C16.5317 9.99342 16.6846 10.2543 16.9522 10.4593C17.5926 10.9252 18.7013 10.9811 19.5233 10.8227C19.877 10.7575 20.135 10.4593 20.3836 10.1798C20.6225 9.90956 20.8519 9.64867 21.1673 9.63935C21.3585 9.63935 21.5401 9.72321 21.7121 9.90025C21.8077 9.99342 21.7981 10.1425 21.7026 10.2264C21.607 10.3195 21.4541 10.3102 21.368 10.217C21.2916 10.1425 21.2247 10.1052 21.1769 10.0959C21.0717 10.0959 20.8901 10.3009 20.7372 10.4686C20.46 10.7761 20.1255 11.1581 19.6094 11.2606C19.3322 11.3445 19.0072 11.3724 18.6535 11.3724Z" fill="white"/>
<path d="M17.8891 17.0747C17.8222 17.0747 17.7553 17.0468 17.7075 16.9909C17.6215 16.8884 17.631 16.7486 17.7362 16.6648C18.2236 16.2641 18.4243 15.91 18.6059 15.5932C19.0456 14.8385 19.3993 14.4005 21.5498 14.2235C23.0696 14.0651 23.9107 13.0122 23.9298 12.0991C23.9489 11.3723 23.4423 10.8691 22.5821 10.748C22.5725 10.748 22.563 10.748 22.5534 10.7387C21.6836 10.4871 21.2249 10.2169 21.0528 9.8628C20.8903 9.51805 21.0432 9.18261 21.1771 8.88444C21.3587 8.48378 21.4542 8.2322 21.2153 7.90608C21.1388 7.80358 21.1675 7.6545 21.2726 7.57996C21.3778 7.50541 21.5307 7.53337 21.6072 7.63586C22.0182 8.19493 21.7888 8.7074 21.6167 9.08011C21.4925 9.35033 21.416 9.52737 21.4925 9.67645C21.5976 9.89076 21.9895 10.0957 22.6777 10.3007C23.9776 10.4964 24.4268 11.3723 24.4172 12.1177C24.3981 13.2265 23.4041 14.5124 21.6072 14.6987C19.6 14.8571 19.3801 15.2298 19.0265 15.8355C18.8353 16.1709 18.5964 16.5809 18.042 17.0282C18.0038 17.0561 17.9464 17.0747 17.8891 17.0747Z" fill="white"/>
<path d="M17.1054 14.084C17.0002 14.084 16.9142 14.0188 16.876 13.9256C16.8377 13.8045 16.9046 13.674 17.0289 13.6368C17.6215 13.4504 18.2428 13.4784 18.8449 13.5063C19.7625 13.5529 20.5558 13.5902 21.0911 12.882C21.4256 12.4254 22.3241 12.1646 22.4292 12.1366C22.5535 12.0993 22.6873 12.1739 22.7255 12.295C22.7637 12.4161 22.6873 12.5466 22.563 12.5838C22.238 12.677 21.6646 12.91 21.483 13.1522C20.8043 14.0654 19.8007 14.0095 18.8258 13.9629C18.2714 13.9349 17.6884 13.907 17.1818 14.0654C17.1532 14.0747 17.134 14.084 17.1054 14.084Z" fill="white"/>
<path d="M20.365 17.4384C20.2885 17.4384 20.212 17.4011 20.1643 17.3359C20.0878 17.2334 20.1165 17.0843 20.2312 17.0097C20.7282 16.6836 21.9421 15.6121 21.8752 15.0344C21.8656 14.9785 21.8465 14.8108 21.4928 14.671C21.3877 14.6337 21.3303 14.5312 21.3399 14.4287C21.3495 14.3262 21.4355 14.2424 21.5406 14.2237C22.181 14.1399 22.5251 14.2051 22.8596 14.261C23.1846 14.3262 23.5 14.3821 24.1213 14.3076C25.1058 14.1026 26.0807 13.2361 26.3005 12.3602C26.3866 12.0154 26.3866 11.5123 25.88 11.1116C25.6506 10.9532 25.1822 11.1209 24.8095 11.2607C24.3603 11.4284 23.9397 11.5868 23.7007 11.2793C23.5956 11.1489 23.6052 11.0278 23.6338 10.9532C23.7007 10.7762 23.9015 10.7296 24.1309 10.683C24.5036 10.6085 25.0102 10.4966 25.1822 9.93758C25.2205 9.81645 25.3543 9.7419 25.4785 9.77918C25.6028 9.81645 25.6793 9.94689 25.641 10.068C25.5741 10.2917 25.469 10.4594 25.3543 10.5991C25.641 10.5432 25.9278 10.5525 26.1763 10.7296C26.1763 10.7296 26.1858 10.7296 26.1858 10.7389C26.7307 11.1768 26.9409 11.7825 26.7689 12.4627C26.5108 13.5063 25.383 14.5126 24.2169 14.7549C24.2073 14.7549 24.2073 14.7549 24.1978 14.7549C23.4905 14.8387 23.1081 14.7642 22.7736 14.6989C22.6016 14.6617 22.4391 14.6337 22.2384 14.6244C22.3148 14.7362 22.3435 14.8573 22.3626 14.9505C22.4869 15.9848 20.537 17.3452 20.5179 17.3638C20.4606 17.4197 20.4128 17.4384 20.365 17.4384Z" fill="white"/>
<path d="M26.6439 10.4406C26.6057 10.4406 26.577 10.4313 26.5388 10.4127C26.4241 10.3568 26.3763 10.217 26.4241 10.1052C26.4336 10.0772 26.7204 9.46228 26.2616 8.58641C25.8506 7.7944 25.6977 7.61736 25.669 7.58941C25.6499 7.58009 25.6403 7.56146 25.6212 7.54282C25.497 7.3751 25.3823 7.20738 25.2676 7.03966C24.5029 5.89358 23.8338 4.91522 21.9796 4.98044C21.8458 4.98044 21.7406 4.88726 21.7311 4.75681C21.7215 4.62637 21.8267 4.52387 21.9605 4.51455C24.0728 4.44001 24.8852 5.63268 25.669 6.77877C25.7741 6.93717 25.8888 7.09557 25.994 7.25397C26.08 7.33783 26.2616 7.58941 26.6822 8.3721C27.2556 9.47159 26.8733 10.2729 26.8542 10.3102C26.816 10.3941 26.7299 10.4406 26.6439 10.4406ZM25.6977 7.60804C25.7072 7.60804 25.7072 7.60804 25.6977 7.60804C25.7072 7.60804 25.7072 7.60804 25.6977 7.60804Z" fill="white"/>
<path d="M28.3265 13.1056C28.2405 13.1056 28.1545 13.059 28.1162 12.9751C28.0589 12.8633 28.1067 12.7235 28.2214 12.6583C28.4508 12.5465 28.4794 12.4254 28.489 12.3881C28.5655 12.062 28.1545 11.5122 27.8104 11.0743C27.6096 10.8134 27.428 10.5711 27.3229 10.3568C27.2656 10.245 27.3133 10.1053 27.4376 10.0494C27.5523 9.99344 27.6957 10.04 27.753 10.1612C27.839 10.3382 28.0111 10.5618 28.1927 10.8041C28.6132 11.3538 29.0816 11.9688 28.9478 12.5092C28.8904 12.7515 28.7088 12.9565 28.4221 13.0869C28.403 13.0963 28.3647 13.1056 28.3265 13.1056Z" fill="white"/>
<path d="M29.4731 12.8447C29.4254 12.8447 29.368 12.8261 29.3298 12.7981C29.2246 12.7236 29.2055 12.5745 29.282 12.472C29.4636 12.2391 28.9379 11.27 28.7181 10.8601C28.632 10.6923 28.5556 10.5526 28.4982 10.4408C28.3453 10.124 28.1063 9.85374 27.8578 9.56489C27.3417 8.97787 26.7587 8.30699 27.0358 7.18886C27.0645 7.06773 27.1983 6.98387 27.3226 7.02114C27.4468 7.04909 27.5329 7.17954 27.4946 7.30067C27.2748 8.18586 27.7145 8.68902 28.221 9.26672C28.4887 9.56489 28.7563 9.88169 28.9283 10.2544C28.9761 10.3569 29.0526 10.4967 29.1386 10.6551C29.5305 11.3912 30.018 12.3043 29.6547 12.7702C29.6165 12.8168 29.5401 12.8447 29.4731 12.8447Z" fill="white"/>
<path d="M30.1621 11.3071C30.0474 11.3071 29.9423 11.2232 29.9232 11.1114C29.7415 10.0492 28.413 8.67945 27.1322 7.36564C26.53 6.74135 25.9565 6.15434 25.4978 5.59527C25.3831 5.46482 25.2779 5.30642 25.1728 5.14802C24.9338 4.80326 24.6662 4.41192 24.303 4.16034C24.1979 4.0858 24.1692 3.93671 24.2552 3.83422C24.3412 3.73172 24.4846 3.70377 24.5897 3.78763C25.0103 4.0858 25.3066 4.51441 25.5647 4.89644C25.6698 5.04552 25.7749 5.19461 25.8705 5.31574C26.3198 5.86549 26.8837 6.44319 27.4763 7.05816C28.8049 8.42787 30.1812 9.84416 30.3915 11.0462C30.4106 11.1766 30.3246 11.2977 30.2003 11.3164C30.1908 11.3071 30.1717 11.3071 30.1621 11.3071Z" fill="white"/>
<path d="M28.6324 8.78207H28.6228C28.489 8.77275 28.3839 8.67026 28.3934 8.53981C28.4317 7.62667 27.8391 6.46195 27.6288 6.32218C27.5236 6.24764 27.495 6.10788 27.5619 5.99606C27.6383 5.89357 27.7817 5.86561 27.8964 5.93084C28.1354 6.08924 28.3839 6.56445 28.5464 6.95579C28.6802 7.28191 28.9 7.92484 28.8713 8.54913C28.8713 8.67957 28.7566 8.78207 28.6324 8.78207Z" fill="white"/>
<path d="M25.6508 15.3322C25.4405 15.3322 25.2493 15.3135 25.0773 15.2949C24.542 15.211 24.2362 15.0433 24.1693 14.7917C24.131 14.6613 24.1502 14.4656 24.4178 14.2699C24.5229 14.1954 24.6759 14.214 24.7523 14.3165C24.8288 14.419 24.8097 14.5681 24.7045 14.6427C24.6759 14.6613 24.6567 14.6799 24.6472 14.6892C24.7619 14.7731 25.1824 14.8849 25.7464 14.8663C26.2243 14.8476 26.5492 14.7358 26.6161 14.6333C26.683 14.5215 26.836 14.4936 26.9411 14.5588C27.0558 14.624 27.0845 14.7731 27.0176 14.8756C26.7977 15.2204 26.1956 15.3322 25.6508 15.3322Z" fill="white"/>
<path d="M30.9264 13.9256C30.8213 13.9256 30.7257 13.8604 30.697 13.7579C30.4294 12.8913 29.7699 12.6957 29.7412 12.6957C29.617 12.6584 29.5405 12.5279 29.5787 12.4068C29.617 12.2857 29.7412 12.2111 29.875 12.2484C29.9133 12.2577 30.8117 12.5093 31.1654 13.6274C31.2036 13.7486 31.1367 13.879 31.0029 13.9163C30.9647 13.9256 30.9455 13.9256 30.9264 13.9256Z" fill="white"/>
<path d="M24.2547 21.0535C23.9107 21.0535 23.5952 20.9789 23.3754 20.7926C23.1747 20.6249 22.974 20.3081 23.1078 19.7304C23.1078 19.7117 23.1173 19.7024 23.1269 19.6838C23.1556 19.6372 23.1556 19.4881 23.1556 19.3763C23.1556 19.0222 23.1556 18.4352 23.796 18.2209C24.0445 18.137 24.3886 18.0998 24.79 18.0625C25.5451 17.9879 26.4722 17.8948 26.7876 17.4382C26.8641 17.3357 27.0075 17.3078 27.1222 17.373C27.2273 17.4475 27.256 17.5873 27.1891 17.6991C26.7494 18.3327 25.698 18.4352 24.8474 18.5284C24.4937 18.5656 24.1496 18.6029 23.9585 18.6681C23.6717 18.7613 23.643 18.9663 23.6335 19.3856C23.6335 19.5626 23.6335 19.721 23.5761 19.8608C23.5188 20.131 23.557 20.336 23.6908 20.4478C23.968 20.6808 24.6944 20.6342 25.4113 20.3453C26.0421 20.0938 26.4913 19.721 26.52 19.4415C26.5391 19.1527 26.52 19.0502 26.5105 19.0129C26.4627 18.929 26.4722 18.8172 26.5391 18.7334C26.6252 18.6402 26.7781 18.6309 26.8737 18.7241C26.9501 18.7986 27.0266 18.9384 26.9884 19.4695C26.9406 20.0379 26.2333 20.5131 25.5929 20.774C25.1914 20.923 24.704 21.0535 24.2547 21.0535Z" fill="white"/>
<path d="M25.5837 19.5066C25.469 19.5066 25.3638 19.4227 25.3447 19.3016C25.3256 19.1712 25.4212 19.0593 25.555 19.0407C26.0233 18.9848 26.7784 18.6028 26.788 18.6028C26.7975 18.6028 26.7976 18.5935 26.8071 18.5935C27.5526 18.2953 27.8872 16.9629 27.6387 16.0777C27.524 15.677 27.2563 15.2204 26.6351 15.3136C26.5012 15.3322 26.3866 15.2484 26.3579 15.1179C26.3388 14.9875 26.4248 14.8757 26.5586 14.8477C27.2946 14.7359 27.8681 15.1459 28.0974 15.9472C28.4033 17.0374 27.9923 18.6121 26.9887 19.0128C26.8931 19.0593 26.1285 19.4321 25.6028 19.4973C25.6028 19.5066 25.5932 19.5066 25.5837 19.5066Z" fill="white"/>
<path d="M28.3939 20.15C28.2123 20.15 28.1168 20.1034 28.0403 20.0009C27.8874 19.7866 28.0594 19.563 28.2697 19.2648C28.4991 18.9387 28.8241 18.5007 28.7094 18.1374C28.6329 17.8858 28.3557 17.6715 27.8874 17.4851C27.7822 17.4478 27.7249 17.3453 27.7344 17.2335C27.7535 17.131 27.8396 17.0472 27.9447 17.0379C27.9543 17.0379 28.6616 16.954 28.9961 16.4508C29.2159 16.1247 29.235 15.6775 29.063 15.1184C29.0248 14.9973 29.0917 14.8668 29.2159 14.8296C29.3402 14.7923 29.474 14.8575 29.5122 14.9786C29.7321 15.6775 29.6938 16.2552 29.388 16.7024C29.1777 17.0192 28.8718 17.2056 28.6042 17.3267C28.891 17.5131 29.0726 17.7367 29.1586 17.9976C29.3306 18.5753 28.9196 19.153 28.6424 19.5257C28.6138 19.563 28.5851 19.6096 28.5469 19.6561C28.6616 19.6375 28.8432 19.6002 29.1108 19.5257C29.235 19.4884 29.3689 19.563 29.4071 19.6934C29.4453 19.8239 29.3689 19.945 29.235 19.9823C28.8527 20.1034 28.5755 20.15 28.3939 20.15Z" fill="white"/>
<path d="M30.0564 18.9103C30.0278 18.9103 29.9991 18.901 29.9704 18.8916C29.8461 18.8451 29.7888 18.7146 29.8366 18.5935C30.0182 18.1276 29.8844 17.466 29.5498 17.1958C29.3682 17.0467 29.1675 17.0467 28.9286 17.1865C28.8139 17.2517 28.6705 17.2144 28.6036 17.112C28.5367 17.0001 28.5749 16.8604 28.6801 16.7952C29.0911 16.5529 29.5212 16.5715 29.8557 16.8417C30.3527 17.2424 30.5343 18.109 30.2763 18.7612C30.238 18.8544 30.152 18.9103 30.0564 18.9103Z" fill="white"/>
<path d="M26.1381 22.1623C26.0234 22.1623 25.9278 22.0784 25.8991 21.9666C25.88 21.8361 25.9661 21.715 26.0903 21.6964C26.1094 21.6964 27.4476 21.4541 27.7534 20.6807C27.8012 20.5596 27.935 20.5037 28.0593 20.5503C28.1835 20.5969 28.2409 20.7273 28.1931 20.8485C27.7916 21.8734 26.2337 22.1436 26.1668 22.1529C26.1572 22.1623 26.1477 22.1623 26.1381 22.1623Z" fill="white"/>
<path d="M42.7189 13.6731V10.7892H46.4912L50.0596 13.6731H53.7737L50.5111 11.1097L49.7246 10.629L50.3655 10.6144C52.5648 10.4397 53.8611 9.391 53.8611 7.20625C53.8611 4.59913 52.157 3.7398 49.7101 3.7398H39.7622V13.6731H42.7189ZM42.7189 6.2741H49.4188C50.3946 6.2741 50.8024 6.55083 50.8024 7.43929C50.8024 8.25493 50.3946 8.57536 49.4188 8.57536H42.7189V6.2741Z" fill="white"/>
<path d="M62.9034 13.877C68.5983 13.877 71.0598 12.2603 71.0598 8.70644C71.0598 5.1526 68.5983 3.53589 62.9034 3.53589C57.2085 3.53589 54.747 5.1526 54.747 8.70644C54.747 12.2603 57.2085 13.877 62.9034 13.877ZM62.9034 11.3427C58.9126 11.3427 57.7037 10.629 57.7037 8.70644C57.7037 6.78387 58.9126 6.07019 62.9034 6.07019C66.8796 6.07019 68.0448 6.78387 68.0448 8.70644C68.0448 10.629 66.8796 11.3427 62.9034 11.3427Z" fill="white"/>
<path d="M80.2135 13.877C85.9084 13.877 88.3699 12.2603 88.3699 8.70644C88.3699 5.1526 85.9084 3.53589 80.2135 3.53589C74.5186 3.53589 72.0571 5.1526 72.0571 8.70644C72.0571 12.2603 74.5186 13.877 80.2135 13.877ZM80.2135 11.3427C76.2227 11.3427 75.0138 10.629 75.0138 8.70644C75.0138 6.78387 76.2227 6.07019 80.2135 6.07019C84.1897 6.07019 85.3549 6.78387 85.3549 8.70644C85.3549 10.629 84.1897 11.3427 80.2135 11.3427Z" fill="white"/>
<path d="M94.7495 6.2741V13.6731H97.7062V6.2741H103.59V3.7398H88.8507V6.2741H94.7495Z" fill="white"/>
<path d="M119.098 11.1388H113.316L108.32 11.3573C109.718 10.9494 112.078 10.1484 113.447 9.47838L119.025 6.18671V3.85632H104.81V6.39062H110.665L115.486 6.18671C114.452 6.46344 112.354 7.14799 111.145 7.70146L104.577 11.3573V13.6731H119.098V11.1388Z" fill="white"/>
<path d="M42.9143 25.8588V18.4599H39.9577V28.3931H52.7748V25.8588H42.9143Z" fill="white"/>
<path d="M66.5746 28.3931H70.1576L63.6908 18.4599H59.7582L53.2768 28.3931H56.8307L58.0396 26.4706H65.3803L66.5746 28.3931ZM59.3213 24.4169L61.7099 20.6009L64.084 24.4169H59.3213Z" fill="white"/>
<path d="M81.8495 28.3931C84.1216 28.3931 85.2723 27.6358 85.2723 25.7423C85.2723 24.2421 84.5731 23.4702 83.2332 23.1643C84.3401 22.873 84.9081 22.1302 84.9081 20.8922C84.9081 19.1881 83.8303 18.4599 81.8349 18.4599H70.7801V28.3931H81.8495ZM81.0047 20.6883C81.8204 20.6883 82.1699 20.9505 82.1699 21.5622C82.1699 22.1739 81.733 22.4361 81.0776 22.4361H73.6931V20.6883H81.0047ZM81.3252 24.5189C82.068 24.5189 82.5341 24.7228 82.5341 25.4219C82.5341 26.1356 82.1408 26.3395 81.2523 26.3395H73.6931V24.5189H81.3252Z" fill="white"/>
<path d="M99.9112 25.5675C99.9112 23.5139 98.6295 22.5235 95.7747 22.3633L90.3566 22.0428C89.4535 21.9846 89.0748 21.8972 89.0748 21.3437C89.0748 20.7465 89.4681 20.6009 92.1481 20.6009C94.6387 20.6009 97.2603 20.8776 98.9499 21.2126L99.4305 18.9842C97.4643 18.5618 94.595 18.2851 92.8326 18.2851C88.2301 18.2851 86.2784 19.1881 86.2784 21.4165C86.2784 23.2663 87.3999 24.2567 90.4877 24.4023L95.9786 24.7228C96.7506 24.7956 97.1147 24.8684 97.1147 25.4802C97.1147 26.0773 96.6923 26.2667 94.3619 26.2667C91.3761 26.2667 88.9001 25.8734 86.861 25.4219L86.4386 27.796C88.2301 28.2329 91.0994 28.5825 93.5754 28.5825C98.4838 28.5825 99.9112 27.6649 99.9112 25.5675Z" fill="white"/>
</svg>
