<?xml version="1.0" encoding="utf-8"?>
<!-- Generator: Adobe Illustrator 27.5.0, SVG Export Plug-In . SVG Version: 6.00 Build 0)  -->
<svg version="1.1" id="Capa_1" xmlns="http://www.w3.org/2000/svg" xmlns:xlink="http://www.w3.org/1999/xlink" x="0px" y="0px"
	 viewBox="0 0 512 512" style="enable-background:new 0 0 512 512;" xml:space="preserve">
<style type="text/css">
	.st0{fill:#FFFFFF;}
</style>
<g>
	<g>
		<g>
			<path class="st0" d="M307.2,215c0-28.2-23-51.2-51.2-51.2s-51.2,23-51.2,51.2s23,51.2,51.2,51.2S307.2,243.3,307.2,215z"/>
			<path class="st0" d="M256,286.7c-50,0-92.2,23.5-92.2,51.2c0,83.2,31,147.9,43.9,160.9c8.4,8.4,26,13.2,48.2,13.2
				s39.8-4.8,48.2-13.2c12.9-12.9,44-77.6,44-160.9C348.2,310.2,306,286.7,256,286.7z"/>
			<path class="st0" d="M256,0C137.4,0,41,96.5,41,215c0,68.6,33.1,133.6,88.6,173.8c4.5,3.3,11,2.3,14.3-2.3
				c3.3-4.6,2.3-11-2.3-14.3C91.4,335.9,61.4,277.1,61.4,215c0-107.3,87.3-194.6,194.6-194.6S450.6,107.8,450.6,215
				c0,62.1-30,120.8-80.1,157.2c-4.6,3.3-5.6,9.7-2.3,14.3c2,2.8,5.1,4.2,8.3,4.2c2.1,0,4.2-0.6,6-1.9
				C437.9,348.6,471,283.7,471,215C471,96.5,374.6,0,256,0z"/>
			<path class="st0" d="M256,81.9c-73.4,0-133.1,59.7-133.1,133.1c0,29.1,9.2,56.6,26.7,79.5c3.4,4.5,9.9,5.4,14.4,2
				c4.5-3.4,5.4-9.9,2-14.4c-14.7-19.4-22.5-42.6-22.5-67.1c0-62.1,50.5-112.6,112.6-112.6S368.6,152.9,368.6,215
				c0,24.5-7.8,47.8-22.5,67.1c-3.4,4.5-2.5,11,2,14.4c1.9,1.4,4,2.1,6.2,2.1c3.1,0,6.1-1.4,8.2-4c17.4-23,26.7-50.5,26.7-79.5
				C389.1,141.6,329.4,81.9,256,81.9z"/>
		</g>
	</g>
</g>
</svg>
