<?xml version="1.0" encoding="utf-8"?>
<!-- Generator: Adobe Illustrator 27.5.0, SVG Export Plug-In . SVG Version: 6.00 Build 0)  -->
<svg version="1.1" id="Layer_1" xmlns="http://www.w3.org/2000/svg" xmlns:xlink="http://www.w3.org/1999/xlink" x="0px" y="0px"
	 viewBox="0 0 512 512" style="enable-background:new 0 0 512 512;" xml:space="preserve">
<style type="text/css">
	.st0{fill:#FFFFFF;}
</style>
<path class="st0" d="M256,0C114.6,0,0,114.6,0,256s114.6,256,256,256s256-114.6,256-256S397.4,0,256,0z M365.2,356.5
	c-3.5,6.4-11.8,8.9-18.6,5.4c-9.5-5-18.6-10.3-28.4-14.4c-20.3-8.5-41.3-13.7-63.2-16c-12.6-1.3-25.2-2.1-37.9-1.6
	c-19.4,0.8-38.9,2.6-57.9,6.7c-4.7,1-9.3,1.9-14,2.8c-8.5,1.6-15.5-2.8-17.3-10.8c-1.8-7.5,2.8-14.9,11-16.8
	c17.8-4.1,35.7-7.3,53.9-8.8c7-0.6,14.2-1,21.3-1.3c38.2-1,75.5,3.3,111.2,18.2c12.1,4.9,23.8,10.5,34.8,17.3
	C367,341.4,369.1,349.3,365.2,356.5z M392.8,295.2c-4.4,6.9-14.8,11.1-24.2,5.4c-31.6-19.2-66.1-29.9-102.6-34.8
	c-38.5-5.4-76.9-4.1-114.8,5.2c-3.4,0.8-6.8,2-10.1,2.9c-9.7,2.6-19.4-2.5-22.1-11.4c-3-10.2,2-19.7,12.3-22.7
	c22.9-6.8,46.1-11,69.9-12.1c7.2-0.4,14.3-0.6,22.2-0.8c43.8,0.2,86.9,8.1,128.4,25.2c12.1,5,23.8,11,35,17.9
	C395.7,275.4,398.3,286.5,392.8,295.2z M423,224.7c-6.8,8.4-17.7,10.6-27.6,5c-17.2-9.7-35.2-17.3-54-22.9
	c-22.2-6.5-44.9-10.9-67.9-13.3c-18.8-2-37.8-3.3-56.8-2.6c-29.2,1.1-58.1,4.1-86.2,12.5c-11.4,3.4-22.9-2.4-26.8-13.6
	c-3.8-10.7,1.9-22.8,13-26.6c14.6-5.1,29.9-7.9,45.2-10.2c21.7-3.4,43.5-4.9,63.2-4.4c41.6-0.5,80.2,4.4,118.2,14.7
	c23.8,6.2,46.7,14.9,68.3,26.8c3.6,2,7.4,3.8,10.2,6.9C429.4,205.4,429.8,216,423,224.7z"/>
</svg>
